<svg width="312" height="196" viewBox="0 0 312 196" fill="none" xmlns="http://www.w3.org/2000/svg">
<g clip-path="url(#clip0_1_528)">
<rect width="312" height="196" rx="15" fill="#282828"/>
<g clip-path="url(#clip1_1_528)">
<path d="M214.016 48.3773C213.774 48.5388 213.855 48.7003 214.097 48.7811C214.339 48.8618 214.661 48.7003 214.984 48.458C215.145 48.2965 215.306 48.135 215.548 47.9735C215.71 47.812 215.79 47.5697 215.79 47.4082C215.71 47.4889 215.548 47.4889 215.468 47.5697C215.306 47.6504 215.226 47.6504 215.145 47.7312C214.742 47.812 214.339 48.0542 214.016 48.3773ZM219.339 47.8927C219.742 47.9735 219.661 48.135 219.177 48.458C218.935 48.6196 218.694 48.7003 218.532 48.7811C218.371 48.8618 218.21 48.9426 218.129 49.0234C217.968 49.1041 217.887 49.1849 217.726 49.2656C217.565 49.3464 217.403 49.4271 217.161 49.5887C216.435 49.9117 215.952 50.2347 215.548 50.3963C215.145 50.5578 214.823 50.6385 214.339 50.7193C214.097 50.7193 213.774 50.7193 213.452 50.6385C213.129 50.5578 212.968 50.3963 212.806 50.2347C212.726 50.0732 212.645 49.9925 212.645 49.8309C212.645 49.6694 212.645 49.5887 212.726 49.4271C212.887 49.0234 213.129 48.7003 213.452 48.3773C213.774 48.0542 214.177 47.7312 214.742 47.4889C214.903 47.4082 215.065 47.3274 215.387 47.2467C215.629 47.1659 215.952 47.1659 216.194 47.1659C216.355 47.1659 216.435 47.2467 216.516 47.3274C216.597 47.4082 216.597 47.4889 216.516 47.5697C216.516 47.7312 216.435 47.812 216.274 48.0542C216.113 48.2158 216.032 48.3773 215.79 48.5388C215.629 48.7003 215.387 48.8618 215.145 48.9426C214.903 49.0234 214.661 49.1041 214.419 49.1041C214.258 49.1041 214.097 49.1041 214.016 49.0234C213.855 49.0234 213.774 48.9426 213.694 48.8618C213.613 49.0234 213.532 49.1849 213.452 49.3464C213.371 49.5079 213.371 49.6694 213.371 49.9117C213.371 50.0732 213.452 50.154 213.613 50.2347C213.694 50.3155 213.935 50.3963 214.339 50.3155C214.581 50.3155 214.823 50.2347 215.065 50.154C215.306 50.0732 215.468 49.9925 215.71 49.8309C216.194 49.5887 216.597 49.4271 216.919 49.2656C217.242 49.1041 217.565 48.9426 217.806 48.7811C218.048 48.6196 218.371 48.5388 218.613 48.3773C218.774 48.2158 219.016 48.0542 219.339 47.8927Z" fill="#FBF8F3"/>
<path d="M223.371 46.3584C223.29 46.3584 223.29 46.3584 223.21 46.4391C223.129 46.5199 223.129 46.5199 223.129 46.6007C223.048 46.6814 223.048 46.7622 223.048 46.9237L223.29 46.6814C223.371 46.6007 223.371 46.5199 223.452 46.5199C223.371 46.3584 223.371 46.3584 223.371 46.3584ZM226.597 47.8928C226.677 47.9736 226.758 48.0543 226.677 48.1351C226.597 48.2158 226.516 48.2158 226.435 48.2158C226.113 48.2966 225.79 48.3774 225.468 48.3774C225.145 48.4581 224.823 48.4581 224.581 48.5389C224.258 48.6196 223.855 48.6196 223.532 48.5389C223.21 48.4581 222.887 48.3774 222.726 48.2158C222.645 48.1351 222.565 48.1351 222.565 48.0543C222.403 48.2158 222.161 48.4581 222 48.6196C221.758 48.7812 221.597 48.9427 221.355 49.1042C221.032 49.3465 220.71 49.5887 220.306 49.7503C220.226 49.831 220.065 49.9118 219.903 49.9118C219.581 50.0733 219.339 50.0733 219.177 50.0733C218.935 50.0733 218.855 49.9925 218.694 49.9118C218.613 49.831 218.532 49.7503 218.532 49.6695C218.532 49.5887 218.532 49.508 218.532 49.3465C218.532 49.2657 218.532 49.185 218.613 49.1042C218.613 49.0234 218.694 48.9427 218.774 48.7004C218.855 48.4581 219.016 48.2966 219.097 48.0543C219.258 47.812 219.419 47.6505 219.5 47.489C219.661 47.3275 219.823 47.2467 219.984 47.3275C220.145 47.4083 220.145 47.4083 220.145 47.489C220.065 47.5698 219.984 47.7313 219.823 47.8928C219.742 48.0543 219.581 48.2158 219.581 48.2966C219.5 48.3774 219.419 48.5389 219.339 48.7004C219.339 48.7812 219.258 48.7812 219.258 48.9427C219.177 49.0234 219.177 49.1042 219.177 49.2657C219.177 49.3465 219.097 49.508 219.097 49.5887C219.097 49.6695 219.097 49.7503 219.177 49.7503C219.258 49.7503 219.339 49.7503 219.5 49.6695C219.661 49.5887 219.742 49.508 219.903 49.4272C220.065 49.3465 220.226 49.185 220.468 49.0234C220.79 48.8619 221.032 48.7004 221.274 48.4581L222 47.812C222 47.7313 222.081 47.7313 222.161 47.6505C222.242 47.5698 222.242 47.5698 222.323 47.489C222.403 47.489 222.403 47.4083 222.403 47.4083C222.403 47.4083 222.403 47.3275 222.484 47.3275C222.484 47.0852 222.484 46.8429 222.645 46.5199C222.645 46.3584 222.726 46.2776 222.806 46.1969C222.887 46.1161 222.968 46.0353 223.048 46.0353C223.129 45.9546 223.21 45.9546 223.29 45.9546C223.452 45.9546 223.532 45.9546 223.613 45.9546C223.855 45.9546 224.016 46.1161 224.097 46.2776C224.177 46.4391 224.097 46.6007 224.016 46.6814C223.855 46.8429 223.694 47.0045 223.532 47.166C223.29 47.4083 223.21 47.5698 223.21 47.6505C223.21 47.812 223.29 47.8928 223.452 47.9736C223.613 48.0543 223.855 48.1351 224.097 48.1351C224.177 48.1351 224.419 48.1351 224.661 48.0543C224.984 48.0543 225.226 47.9736 225.548 47.8928C225.79 48.0543 226.194 47.9736 226.597 47.8928Z" fill="#FBF8F3"/>
<path d="M226.758 48.3773C226.516 48.5388 226.597 48.7003 226.839 48.7811C227.081 48.8618 227.403 48.7003 227.726 48.458C227.887 48.2965 228.048 48.135 228.29 47.9735C228.532 47.812 228.532 47.5697 228.532 47.4082C228.452 47.4889 228.29 47.4889 228.21 47.5697C228.048 47.6504 227.968 47.6504 227.887 47.7312C227.403 47.812 227.081 48.0542 226.758 48.3773ZM232 47.8927C232.403 47.9735 232.323 48.135 231.839 48.458C231.597 48.6196 231.355 48.7003 231.194 48.7811C231.032 48.8618 230.871 48.9426 230.79 49.0234C230.629 49.1041 230.548 49.1849 230.387 49.2656C230.226 49.3464 230.065 49.4271 229.823 49.5887C229.097 49.9117 228.613 50.2347 228.21 50.3963C227.806 50.5578 227.484 50.6385 227 50.7193C226.758 50.7193 226.435 50.7193 226.113 50.6385C225.79 50.5578 225.629 50.3963 225.468 50.2347C225.387 50.0732 225.306 49.9925 225.306 49.8309C225.306 49.6694 225.306 49.5887 225.387 49.4271C225.548 49.0234 225.79 48.7003 226.113 48.3773C226.435 48.0542 226.839 47.7312 227.403 47.4889C227.565 47.4082 227.726 47.3274 228.048 47.2467C228.29 47.1659 228.613 47.1659 228.855 47.1659C229.016 47.1659 229.097 47.2467 229.177 47.3274C229.258 47.4082 229.258 47.4889 229.177 47.5697C229.177 47.7312 229.097 47.812 228.935 48.0542C228.774 48.2158 228.694 48.3773 228.452 48.5388C228.29 48.7003 228.048 48.8618 227.806 48.9426C227.565 49.0234 227.323 49.1041 227.081 49.1041C226.919 49.1041 226.758 49.1041 226.677 49.0234C226.516 49.0234 226.435 48.9426 226.355 48.8618C226.274 49.0234 226.194 49.1849 226.113 49.3464C226.032 49.5079 226.032 49.6694 226.032 49.9117C226.032 50.0732 226.113 50.154 226.274 50.2347C226.355 50.3155 226.597 50.3963 227 50.3155C227.242 50.3155 227.484 50.2347 227.726 50.154C227.968 50.0732 228.129 49.9925 228.371 49.8309C228.855 49.5887 229.258 49.4271 229.581 49.2656C229.903 49.1041 230.226 48.9426 230.468 48.7811C230.71 48.6196 231.032 48.5388 231.274 48.3773C231.435 48.2158 231.677 48.0542 232 47.8927Z" fill="#FBF8F3"/>
<path d="M231.677 48.0543C231.677 48.0543 231.516 48.1351 232 47.812C232.565 47.489 232.403 47.489 232.645 47.5698C232.887 47.6505 232.645 47.9736 232.645 47.9736C232.887 48.1351 233.129 48.2158 233.21 48.2966C233.532 48.5389 233.694 48.7812 233.694 49.0234C233.694 49.185 233.694 49.2657 233.613 49.3465C233.613 49.4272 233.532 49.508 233.452 49.6695C233.452 49.6695 233.371 49.7503 233.371 49.9118C233.371 50.0733 233.29 50.1541 233.371 50.1541C233.452 50.1541 233.532 50.1541 233.694 50.1541C233.855 50.0733 233.935 50.0733 234.097 49.9925C234.258 49.9118 234.419 49.9118 234.581 49.831C234.742 49.7503 234.903 49.6695 235.065 49.5887C235.226 49.508 235.387 49.4272 235.548 49.3465C235.629 49.3465 235.71 49.2657 236.032 49.1042C236.274 48.9427 236.516 48.7812 236.758 48.7004C236.919 48.6196 237.081 48.4581 237.242 48.3774C237.403 48.2966 237.565 48.2158 237.565 48.1351L238.048 47.812C238.129 47.812 238.21 47.8928 238.29 47.8928C238.452 47.9736 238.452 48.0543 238.371 48.0543C238.29 48.0543 238.21 48.1351 238.129 48.2158C237.968 48.3774 237.806 48.4581 237.565 48.6196L236.839 49.1042C236.516 49.2657 236.194 49.508 235.871 49.6695C235.548 49.831 235.226 49.9925 234.823 50.1541C234.581 50.2348 234.339 50.3156 234.016 50.3963C233.694 50.4771 233.371 50.4771 233.048 50.4771C232.806 50.3963 232.726 50.3963 232.645 50.3156C232.565 50.2348 232.565 50.1541 232.565 50.0733C232.565 49.9925 232.565 49.9118 232.645 49.7503C232.726 49.6695 232.726 49.5887 232.726 49.508C232.806 49.3465 232.806 49.1849 232.806 48.9427C232.806 48.7812 232.645 48.6196 232.403 48.4581C232.242 48.3774 232.161 48.2966 232.081 48.2966C232 48.2158 231.839 48.1351 231.758 48.1351L231.677 48.0543Z" fill="#FBF8F3"/>
<path d="M242.726 47.6505C242.887 47.7312 242.968 47.812 242.887 47.8927C242.806 48.0543 242.726 48.2158 242.565 48.3773C242.403 48.5388 242.323 48.7003 242.161 48.8619C241.194 50.154 239.339 53.5459 239.258 53.7074C239.177 53.8689 239.177 53.9497 239.177 53.9497C239.177 54.0304 239.097 54.1112 238.935 54.0304C238.774 54.0304 238.694 53.9497 238.613 53.8689C238.613 53.7882 238.613 53.7074 238.613 53.7074C238.694 53.5459 241.355 49.1041 241.355 49.1041C241.435 49.0234 241.435 48.9426 241.516 48.8619C241.597 48.7811 241.597 48.7003 241.677 48.6196C241.677 48.6196 241.677 48.5388 241.758 48.5388C241.758 48.5388 241.758 48.4581 241.839 48.4581L242 48.2965H241.919H241.839C241.758 48.2965 241.758 48.3773 241.677 48.3773C241.597 48.3773 241.516 48.4581 241.516 48.4581C241.274 48.5388 241.032 48.7003 240.871 48.7811C240.71 48.8619 240.387 49.0234 240.145 49.1041C239.984 49.1849 239.823 49.1849 239.661 49.2657C239.5 49.3464 239.258 49.3464 239.097 49.3464C238.855 49.3464 238.613 49.3464 238.371 49.2657C238.129 49.1849 237.968 49.0234 237.968 48.8619C237.887 48.7003 237.887 48.5388 237.968 48.3773C237.968 48.2158 238.048 48.135 238.129 47.9735C238.21 47.812 238.29 47.7312 238.532 47.6505C238.694 47.6505 238.774 47.6505 238.855 47.6505C239.016 47.7312 239.016 47.812 238.935 47.8927C238.855 47.9735 238.774 48.0543 238.774 48.135C238.694 48.2158 238.694 48.2965 238.694 48.4581C238.694 48.5388 238.613 48.6196 238.613 48.7811C238.613 48.8619 238.613 48.9426 238.694 49.0234C238.694 49.1041 238.855 49.1849 239.016 49.1849C239.258 49.1849 239.5 49.1849 239.661 49.1041C239.903 49.0234 240.065 48.9426 240.226 48.8619C240.468 48.7811 240.71 48.7003 240.952 48.6196C241.194 48.5388 241.355 48.3773 241.597 48.2965C241.758 48.2158 241.919 48.135 242.081 48.0543C242.242 47.9735 242.403 47.8928 242.565 47.812C242.645 47.812 242.645 47.812 242.645 47.812C242.645 47.812 242.645 47.812 242.726 47.812C242.403 47.5697 242.565 47.5697 242.726 47.6505Z" fill="#FBF8F3"/>
<path d="M268.532 45.5508C268.694 45.6315 268.694 45.7123 268.613 45.793C268.452 45.8738 268.371 45.8738 268.21 45.793C268.129 45.7123 268.048 45.7123 267.887 45.7123C266.274 45.6315 264.581 45.5508 262.968 45.47C261.355 45.3892 259.661 45.3892 257.968 45.3085C256.516 45.3085 255.065 45.3085 253.694 45.3085C252.242 45.3085 250.871 45.3085 249.419 45.3892C249.177 45.3892 248.935 45.3892 248.694 45.3892C248.452 45.3892 248.21 45.3892 247.968 45.3892H247.645C247.484 45.3892 247.161 45.3892 247.081 45.3892C246.758 45.8738 241.516 55.4034 241.516 55.4034C241.516 55.4841 241.435 55.5649 241.355 55.5649C241.274 55.6457 241.355 55.7264 241.113 55.6457C241.032 55.6457 240.952 55.5649 240.952 55.5649C240.871 55.4841 240.871 55.4034 240.952 55.2419C241.032 55.0803 241.113 54.9996 241.194 54.8381C241.597 54.192 245.387 47.0852 245.629 46.7621C245.79 46.4391 245.952 46.1968 246.194 45.8738C246.274 45.793 246.274 45.7123 246.355 45.6315C246.435 45.5508 246.435 45.47 246.516 45.3892C246.194 45.3892 245.952 45.3892 245.71 45.3892C245.468 45.3892 245.306 45.3892 245.065 45.3892H244.5C244.258 45.3892 243.935 45.3892 243.694 45.3892C243.452 45.3892 243.21 45.3892 242.887 45.3892H241.516H240.71C240.468 45.3892 240.145 45.3892 239.903 45.3085C239.742 45.3085 239.581 45.2277 239.5 45.2277C239.339 45.147 239.339 45.0662 239.339 44.9854L239.419 44.9047C239.5 44.9047 239.5 44.8239 239.581 44.8239C239.742 44.7432 239.903 44.7432 239.984 44.7432C240.145 44.7432 240.226 44.7432 240.226 44.8239C240.306 44.9047 240.226 44.9047 240.145 44.9854C240.065 44.9854 240.065 45.0662 239.903 45.0662C239.823 45.0662 239.823 45.0662 239.823 45.0662H239.742C239.823 45.0662 239.903 45.147 239.984 45.147C240.226 45.147 240.387 45.147 240.548 45.147C240.71 45.147 240.952 45.147 241.113 45.147H241.839C242.081 45.147 242.323 45.147 242.565 45.147H243.371C243.613 45.147 243.855 45.147 244.097 45.147C244.177 45.147 244.419 45.147 244.661 45.147C244.903 45.147 245.226 45.147 245.468 45.147C245.79 45.147 246.194 45.147 246.516 45.0662C246.597 44.9047 246.677 44.8239 246.758 44.6624C246.839 44.5009 246.919 44.4201 247 44.2586C247.081 44.0971 247.242 43.9356 247.323 43.7741C247.403 43.6125 247.565 43.451 247.645 43.2895L248.29 42.4012C248.371 42.2396 248.532 42.0781 248.694 41.9166C248.694 41.8358 248.774 41.8358 248.774 41.8358C248.774 41.7551 248.855 41.7551 248.935 41.8358C249.016 41.8358 249.097 41.8358 249.177 41.9166C249.258 41.9974 249.258 42.0781 249.177 42.1589C249.177 42.1589 248.774 42.6434 248.694 42.8049C248.613 42.9665 247.403 44.6624 247.161 45.0662H248.048H248.694C248.935 45.0662 249.097 45.0662 249.339 45.0662C251.032 45.0662 252.645 44.9854 254.258 44.9854C255.871 44.9854 257.565 44.9854 259.177 45.0662C260.629 45.0662 262.081 45.147 263.452 45.2277C264.903 45.3085 266.274 45.3892 267.726 45.47C267.806 45.47 267.806 45.47 267.887 45.47C267.968 45.47 268.048 45.47 268.129 45.5508C268.371 45.5508 268.452 45.5508 268.532 45.5508Z" fill="#FBF8F3"/>
<path d="M248.694 48.2159C248.613 48.3774 248.532 48.5389 248.452 48.6197C248.371 48.7812 248.29 48.8619 248.21 49.0235C248.29 48.9427 248.371 48.9427 248.371 48.8619C248.371 48.7812 248.452 48.7812 248.532 48.7004C248.613 48.6197 248.613 48.6197 248.694 48.6197C248.855 48.4582 249.016 48.2966 249.177 48.2159C249.339 48.0544 249.581 47.9736 249.742 47.8121C249.903 47.7313 250.065 47.6506 250.145 47.5698C250.468 47.489 250.79 47.489 251.032 47.6506C251.194 47.7313 251.274 47.8121 251.274 47.8928C251.274 47.9736 251.274 48.1351 251.274 48.2159C251.274 48.4582 251.194 48.6197 251.113 48.8619C251.032 49.1042 250.952 49.2657 250.871 49.508C250.79 49.6695 250.79 49.8311 250.71 49.9118C250.71 49.9926 250.71 50.1541 250.71 50.2349C250.71 50.3156 250.71 50.3964 250.79 50.3964C250.871 50.3964 250.952 50.3964 251.113 50.3156C251.274 50.2348 251.355 50.1541 251.516 50.0733C251.677 49.9926 251.839 49.9118 252.081 49.7503C252.242 49.5888 252.484 49.508 252.726 49.3465C252.968 49.185 253.29 49.0235 253.452 48.8619C253.694 48.7004 254.016 48.5389 254.339 48.2966C254.581 48.3774 254.661 48.4581 254.581 48.4581C254.5 48.5389 254.5 48.5389 254.419 48.6197C254.258 48.7812 254.016 48.9427 253.855 49.1042C253.613 49.2657 253.452 49.4273 253.21 49.5888C252.968 49.7503 252.726 49.9118 252.484 50.0733C252.242 50.2349 252.081 50.3156 251.919 50.3964C251.839 50.4771 251.758 50.4771 251.677 50.5579C251.597 50.5579 251.516 50.6386 251.516 50.6386C251.435 50.6386 251.355 50.7194 251.274 50.7194C251.032 50.8002 250.871 50.8002 250.629 50.7194C250.387 50.7194 250.226 50.5579 250.226 50.3964C250.145 50.3156 250.145 50.2349 250.145 50.0733C250.145 49.9118 250.226 49.7503 250.226 49.5888C250.226 49.4273 250.306 49.2657 250.387 49.1042C250.468 48.9427 250.468 48.7812 250.548 48.6197L250.629 48.2159C250.629 48.1351 250.629 48.0544 250.629 47.9736C250.629 47.8928 250.548 47.8121 250.548 47.8121C250.468 47.8121 250.387 47.8121 250.226 47.8928C250.065 47.9736 249.984 48.0544 249.823 48.1351C249.661 48.2159 249.5 48.3774 249.339 48.4581C249.258 48.4581 249.258 48.5389 249.177 48.6197C249.097 48.7004 249.097 48.7004 249.016 48.7812C248.855 48.9427 248.694 49.0235 248.613 49.185C248.532 49.2657 248.371 49.4273 248.21 49.5888C248.048 49.7503 247.968 49.8311 247.806 49.9926C247.726 50.1541 247.565 50.2349 247.484 50.3964C247.403 50.3964 247.403 50.4771 247.403 50.4771C247.323 50.5579 247.161 50.5579 247 50.5579C246.839 50.4771 246.758 50.4771 246.758 50.3964C246.758 50.3156 246.758 50.2349 246.839 50.0733L247.161 49.2657L247.565 48.4581C247.645 48.2966 247.726 48.1351 247.806 48.0544C247.887 47.8928 247.968 47.8121 248.048 47.6506C248.129 47.489 248.21 47.3275 248.29 47.166C248.371 47.0045 248.532 46.843 248.613 46.6814C248.694 46.5199 248.774 46.4392 248.774 46.2777C248.855 46.1161 248.935 46.0354 248.935 45.9546C249.016 45.7931 249.097 45.7123 249.177 45.5508C249.258 45.3893 249.339 45.3085 249.419 45.2278C249.5 45.147 249.581 44.9855 249.581 44.9047C249.661 44.824 249.661 44.6625 249.742 44.5817L250.065 44.0972C250.145 44.0164 250.226 43.9356 250.226 43.8549C250.306 43.7741 250.306 43.6934 250.387 43.6126C250.468 43.4511 250.629 43.2896 250.71 43.128C250.79 42.9665 250.871 42.805 251.032 42.6435C251.113 42.482 251.194 42.4012 251.274 42.2397C251.355 42.0782 251.435 41.9974 251.516 41.8359L252 41.1898C252 41.1091 252.081 41.1091 252.161 41.0283C252.242 40.9476 252.323 40.9476 252.323 40.8668C252.323 40.8668 252.323 40.786 252.403 40.786C252.484 40.7053 252.565 40.7053 252.645 40.786C252.726 40.786 252.806 40.8668 252.806 40.9476C252.726 41.0283 252.645 41.1091 252.645 41.1898C252.565 41.2706 252.484 41.4321 252.403 41.5129C252.323 41.5936 252.242 41.7551 252.161 41.8359C252 42.0782 251.839 42.2397 251.758 42.482C251.677 42.5627 251.597 42.6435 251.597 42.805C251.597 42.9665 251.516 42.9665 251.435 43.128C251.355 43.2896 251.274 43.4511 251.194 43.5318C251.113 43.6934 251.032 43.7741 250.952 43.9356C250.79 44.2587 250.548 44.5817 250.387 44.9047C250.306 45.0663 250.226 45.2278 250.065 45.3893C249.984 45.5508 249.823 45.7123 249.742 45.9546C249.661 46.1161 249.581 46.2777 249.5 46.4392C249.419 46.6007 249.339 46.7622 249.258 46.9237L248.694 48.2159Z" fill="#FBF8F3"/>
<path d="M255.306 47.3275C255.145 47.3275 255.145 47.2468 255.145 47.166C255.145 47.0852 255.306 46.9237 255.306 46.843C255.387 46.7622 255.468 46.7622 255.629 46.7622C255.71 46.843 255.71 46.843 255.71 46.9237L255.548 47.166C255.468 47.3275 255.387 47.3275 255.306 47.3275ZM259.016 48.2966C259.177 48.4581 259.258 48.5389 259.177 48.5389C259.097 48.6197 258.855 48.7004 258.613 48.8619C258.371 48.9427 258.129 49.1042 257.887 49.185C257.645 49.2657 257.403 49.4273 257.161 49.508C257 49.5888 256.839 49.6695 256.677 49.7503C256.516 49.8311 256.355 49.9118 256.194 49.9926C256.032 50.0733 255.871 50.1541 255.71 50.1541C255.548 50.2348 255.387 50.2349 255.226 50.3156C255.065 50.3156 254.984 50.3156 254.903 50.3156C254.823 50.3156 254.661 50.3156 254.581 50.3156C254.339 50.2349 254.177 50.2349 254.097 50.0733C253.935 49.9118 253.855 49.7503 253.935 49.5888C254.016 49.4273 254.097 49.185 254.177 49.1042C254.258 48.8619 254.339 48.7004 254.419 48.6197C254.5 48.4582 254.581 48.2966 254.742 48.1351C254.823 48.0544 254.903 47.9736 254.984 47.8928C255.065 47.8928 255.065 47.8121 255.065 47.8121C255.145 47.8121 255.306 47.8121 255.387 47.8121C255.468 47.8121 255.548 47.8928 255.548 47.8928C255.548 47.9736 255.548 48.0544 255.387 48.2159C255.306 48.3774 255.226 48.5389 255.145 48.6197C255.065 48.7812 254.903 48.9427 254.903 49.1042C254.823 49.2657 254.742 49.4273 254.661 49.5888C254.581 49.7503 254.661 49.9118 254.823 49.9926C254.903 49.9926 255.065 49.9926 255.306 49.9118C255.548 49.8311 255.71 49.7503 255.79 49.6695C256.032 49.5888 256.355 49.4273 256.597 49.3465C256.839 49.2657 257.161 49.1042 257.403 49.0235C257.565 48.9427 257.806 48.8619 257.968 48.7812C258.129 48.7004 258.371 48.6197 258.532 48.5389C258.532 48.5389 258.774 48.3774 259.016 48.2966Z" fill="#FBF8F3"/>
<path d="M261.839 49.9925C262 49.9117 262.161 49.831 262.323 49.7502C262.484 49.6695 262.565 49.6695 262.726 49.5887C262.887 49.5079 263.129 49.4272 263.452 49.2657C263.774 49.1041 264.097 48.9426 264.419 48.7811C264.823 48.6196 265.226 48.4581 265.629 48.2158C265.79 48.2965 265.871 48.2965 265.79 48.3773L265.71 48.4581C265.548 48.5388 265.387 48.6196 265.226 48.7003C265.065 48.7811 264.984 48.8619 264.823 48.9426C264.661 49.0234 264.581 49.1041 264.419 49.1849C264.258 49.2657 264.097 49.3464 263.935 49.4272C263.694 49.5079 263.532 49.5887 263.371 49.6695C263.29 49.7502 263.129 49.831 262.968 49.9117C262.806 49.9925 262.645 50.0732 262.484 50.154C262.323 50.2348 262.161 50.3155 262.081 50.3155C261.839 50.3963 261.677 50.3963 261.516 50.3155C261.355 50.2348 261.274 50.154 261.274 50.0732C261.274 49.9925 261.274 49.9117 261.274 49.831L261.597 49.0234C261.597 48.9426 261.677 48.8619 261.677 48.8619C261.677 48.7811 261.758 48.7003 261.758 48.7003C261.758 48.6196 261.839 48.5388 261.839 48.4581C261.839 48.3773 261.839 48.3773 261.919 48.2965C261.839 48.2965 261.758 48.3773 261.677 48.3773C261.597 48.3773 261.597 48.3773 261.516 48.4581C261.274 48.5388 261.032 48.7003 260.871 48.7811C260.71 48.8619 260.468 49.0234 260.306 49.1041C260.145 49.1849 259.984 49.3464 259.742 49.4272C259.581 49.5079 259.419 49.6695 259.177 49.7502C259.097 49.7502 259.016 49.831 258.935 49.9117C258.855 49.9117 258.694 49.9117 258.613 49.9117C258.532 49.9117 258.452 49.831 258.371 49.7502C258.371 49.6695 258.371 49.5887 258.371 49.5887C258.371 49.5079 258.452 49.4272 258.532 49.2657C258.613 49.1041 258.613 48.9426 258.694 48.8619C258.774 48.7003 258.774 48.6196 258.855 48.4581C258.935 48.3773 258.935 48.2965 258.935 48.2965C259.016 48.2158 259.177 48.2158 259.258 48.2158C259.419 48.2158 259.5 48.2965 259.5 48.4581C259.419 48.5388 259.419 48.6196 259.419 48.7811C259.419 48.8619 259.339 48.9426 259.339 49.1041C259.339 49.1041 259.258 49.1849 259.258 49.3464C259.581 49.1041 259.903 48.9426 260.226 48.7003C260.548 48.5388 260.952 48.3773 261.355 48.135C261.435 48.135 261.516 48.0543 261.597 48.0543C261.677 47.9735 261.839 47.9735 261.919 47.9735C262.081 47.9735 262.161 47.9735 262.323 48.0543C262.403 48.135 262.484 48.135 262.484 48.2158C262.484 48.2965 262.565 48.3773 262.565 48.3773C262.565 48.4581 262.565 48.5388 262.565 48.5388C262.484 48.7003 262.484 48.8619 262.403 49.0234C262.323 49.1849 262.242 49.3464 262.161 49.5079C262.161 49.5887 262.081 49.6695 262.081 49.7502C262.081 49.831 262 49.9117 262 49.9925C261.839 49.9117 261.839 49.9117 261.839 49.9925Z" fill="#FBF8F3"/>
<path d="M265.71 49.5887C265.871 49.5079 266.032 49.4272 266.194 49.2656C266.355 49.1041 266.516 49.1041 266.516 49.0234C266.516 49.0234 266.597 48.9426 266.677 48.9426C266.758 48.8619 266.839 48.7811 266.919 48.7003C267 48.6196 267.081 48.5388 267.242 48.3773C267.161 48.2965 267 48.2965 266.839 48.2965C266.677 48.2965 266.597 48.2965 266.435 48.3773C266.032 48.4581 265.71 48.6196 265.468 48.8619C265.226 49.0234 265.065 49.2656 265.065 49.5079L265.145 49.7502C265.145 49.831 265.226 49.831 265.387 49.831C265.468 49.831 265.548 49.7502 265.629 49.7502C265.548 49.6694 265.629 49.5887 265.71 49.5887ZM266.113 51.4461C266.113 51.4461 264.903 52.0922 264.177 53.0613C263.855 53.4651 263.694 53.8689 263.694 54.2727C263.694 54.4342 263.935 54.5957 264.177 54.5957C265.145 54.1112 266.194 51.7692 266.113 51.4461ZM271.113 48.2965C271.274 48.3773 271.355 48.4581 271.355 48.4581C271.355 48.5388 271.355 48.5388 271.194 48.7003C271.032 48.7811 267.242 50.8808 266.839 51.2039C266.839 51.2846 266.032 53.4651 265.468 54.1112C265.306 54.2727 264.5 55.3226 263.532 54.9995C262.968 54.838 263.048 53.7074 263.371 53.1421C264.177 52.0115 266.194 50.7193 266.274 50.6386C266.274 50.5578 267 49.4272 267.081 49.2656C267 49.3464 266.839 49.4272 266.758 49.4272C266.677 49.5079 266.597 49.5887 266.435 49.5887C266.355 49.6694 266.274 49.6694 266.113 49.7502C265.952 49.831 265.871 49.9117 265.71 49.9117C265.548 49.9925 265.387 49.9925 265.226 49.9925C265.065 49.9925 264.903 49.9117 264.742 49.831C264.5 49.6694 264.339 49.4272 264.419 49.1849C264.5 48.9426 264.661 48.7003 264.742 48.5388C265.145 48.135 265.79 47.8927 266.597 47.812C266.839 47.812 267.081 47.812 267.323 47.8927C267.403 47.8927 267.403 47.8927 267.484 47.9735L267.565 47.8927C267.565 47.8927 268.048 47.2467 268.129 47.1659C268.21 47.0044 268.371 47.0044 268.613 47.0852C268.855 47.1659 268.935 47.2467 268.855 47.3274C268.452 47.7312 267.161 49.4272 267 50.2348C267.161 50.3155 270.79 48.4581 271.113 48.2965Z" fill="#FBF8F3"/>
<path d="M206.838 40.5437H206.919C207.403 40.5437 207.725 39.9784 207.403 39.5746L200.951 30.8526C200.79 30.6103 200.79 30.2873 200.951 30.1258L206.919 22.0499C207.242 21.6461 206.919 21.0808 206.435 21.0808C206.274 21.0808 206.032 21.1615 205.951 21.323L200.387 28.8336C200.064 29.0759 199.58 29.0759 199.338 28.7529L193.774 21.2423C193.693 21.0808 193.451 21 193.29 21H193.129C192.645 21 192.322 21.5653 192.645 21.9691L198.613 30.045C198.774 30.2873 198.774 30.6103 198.613 30.7719L192.161 39.5746C191.838 39.9784 192.161 40.5437 192.645 40.5437H192.725C192.887 40.5437 193.129 40.4629 193.209 40.3014L199.258 32.2255C199.5 31.9025 199.984 31.9025 200.306 32.2255L206.355 40.3822C206.435 40.4629 206.596 40.5437 206.838 40.5437Z" fill="#F5CC82"/>
<path d="M214.258 39.8976C214.258 40.3014 214.5 40.5437 214.903 40.5437H226.274C226.597 40.5437 226.919 40.3014 226.919 39.8976C226.919 39.5746 226.677 39.2516 226.274 39.2516H214.823C214.5 39.2516 214.258 39.5746 214.258 39.8976ZM226.274 21H214.823C214.5 21 214.177 21.2423 214.177 21.6461C214.177 21.9691 214.419 22.2921 214.823 22.2921H226.194C226.516 22.2921 226.839 22.0499 226.839 21.6461C226.919 21.2423 226.597 21 226.274 21ZM226.274 29.9643H214.823C214.5 29.9643 214.177 30.2065 214.177 30.6103C214.177 31.0141 214.419 31.2564 214.823 31.2564H226.194C226.516 31.2564 226.839 31.0141 226.839 30.6103C226.839 30.2065 226.597 29.9643 226.274 29.9643Z" fill="#F5CC82"/>
<path d="M248.452 22.7767C247.081 21.5653 245.145 21 242.645 21H236.274C235.952 21 235.629 21.2423 235.629 21.6461C235.629 21.9691 235.871 22.2921 236.274 22.2921H242.645C244.742 22.2921 246.274 22.7767 247.403 23.6651C248.532 24.5534 249.016 25.9263 249.016 27.5415C249.016 29.2374 248.452 30.5296 247.403 31.4179C246.274 32.3063 244.661 32.7908 242.645 32.7908H236.274C235.952 32.7908 235.629 33.0331 235.629 33.4369V39.8976C235.629 40.2207 235.871 40.5437 236.274 40.5437H236.435C236.758 40.5437 237.081 40.3014 237.081 39.8976V34.7291C237.081 34.406 237.323 34.083 237.726 34.083H242.645C245.065 34.083 247 33.5177 248.452 32.387C249.823 31.1757 250.548 29.6412 250.548 27.5415C250.548 25.5225 249.823 23.9073 248.452 22.7767Z" fill="#F5CC82"/>
<path d="M270.871 22.7767C269.419 21.5653 267.484 21 265.065 21H258.694C258.371 21 258.048 21.2423 258.048 21.6461C258.048 21.9691 258.29 22.2921 258.694 22.2921H265.065C267.161 22.2921 268.694 22.7767 269.823 23.6651C270.952 24.5534 271.435 25.9263 271.435 27.5415C271.435 29.2374 270.871 30.5296 269.823 31.4179C268.694 32.3063 267.081 32.7908 265.065 32.7908H258.694C258.371 32.7908 258.048 33.0331 258.048 33.4369V39.8976C258.048 40.2207 258.29 40.5437 258.694 40.5437H258.855C259.177 40.5437 259.5 40.3014 259.5 39.8976V34.7291C259.5 34.406 259.742 34.083 260.145 34.083H265.065C267.484 34.083 269.419 33.5177 270.871 32.387C272.242 31.1757 272.968 29.6412 272.968 27.5415C272.968 25.5225 272.242 23.9073 270.871 22.7767Z" fill="#F5CC82"/>
<path d="M283.532 22.9382V39.9784C283.532 40.3014 283.774 40.6245 284.177 40.6245H284.339C284.661 40.6245 284.984 40.3822 284.984 39.9784V22.9382C284.984 22.6152 285.226 22.2921 285.629 22.2921H291.435C291.758 22.2921 292.081 22.0499 292.081 21.6461C292.081 21.323 291.839 21 291.435 21H277.161C276.839 21 276.516 21.2423 276.516 21.6461C276.516 21.9691 276.758 22.2921 277.161 22.2921H282.968C283.29 22.2921 283.532 22.5344 283.532 22.9382Z" fill="#F5CC82"/>
</g>
<g clip-path="url(#clip2_1_528)">
<path d="M275.616 156.753C274.222 156.245 272.748 155.99 271.264 156C266.465 156 263.075 158.418 263.051 161.888C263.021 164.438 265.46 165.875 267.305 166.727C269.197 167.603 269.83 168.154 269.824 168.937C269.812 170.128 268.313 170.668 266.918 170.668C265.001 170.668 263.954 170.401 262.343 169.732L261.747 169.453L261.066 173.449C262.232 173.935 264.335 174.352 266.507 174.388C271.609 174.388 274.945 171.985 274.984 168.292C275.026 166.256 273.706 164.717 270.928 163.445C269.239 162.62 268.193 162.068 268.193 161.232C268.193 160.491 269.089 159.699 270.964 159.699C272.212 159.669 273.452 159.903 274.603 160.386L275.053 160.587L275.733 156.726L275.616 156.753ZM288.071 156.324H284.321C283.154 156.324 282.275 156.645 281.766 157.803L274.555 174.139H279.657L280.677 171.46L286.904 171.466C287.051 172.093 287.501 174.139 287.501 174.139H292L288.071 156.324ZM256.149 156.174H261.012L257.97 173.998H253.114L254.632 165.083L256.149 156.168V156.174ZM243.806 165.998L244.31 168.472L249.061 156.324H254.212L246.56 174.115H241.422L237.222 159.051C237.154 158.802 236.994 158.589 236.775 158.454C235.262 157.672 233.658 157.079 232 156.687L232.066 156.312H239.892C240.954 156.354 241.809 156.687 242.093 157.821L243.803 166.007L243.806 165.998ZM282.071 167.816L284.009 162.83C283.985 162.884 284.408 161.801 284.654 161.133L284.987 162.671L286.112 167.813H282.068L282.071 167.816Z" fill="#FDFDFD"/>
</g>
<path opacity="0.05" d="M156.952 69.9881L225.135 77.1594L106.913 116.853L156.952 69.9881Z" fill="#66625B"/>
<path opacity="0.05" d="M220.231 56.5803L322.302 83.5629L273.648 161.563L220.231 56.5803Z" fill="#A8A5A2"/>
<path opacity="0.05" d="M127.83 34.2605L54.0049 97.9328L30.3745 36.8599L127.83 34.2605Z" fill="#A8A5A2"/>
<path opacity="0.05" d="M84.2393 51.8288L139.788 50.8252L102.156 104.418L84.2393 51.8288Z" fill="#A8A5A2"/>
<path opacity="0.4" d="M68.3861 31.3105L189.231 156.521L104.427 188.525L68.3861 31.3105Z" fill="#1D1D1D"/>
<path opacity="0.05" d="M82.9774 113.842L103.806 165.568L27.6424 106.953L82.9774 113.842Z" fill="#A8A5A2"/>
<path opacity="0.05" d="M193.091 63.5003L193.091 148.894L133 131.5L193.091 63.5003Z" fill="#A8A5A2"/>
<path opacity="0.3" d="M-5.57042 31.1522L57.9982 -11.0358L51.8528 76.6396L-5.57042 31.1522Z" fill="#1D1D1D"/>
<path opacity="0.3" d="M86.1411 125.796L52.1017 178.376L-5.10693 146.874L86.1411 125.796Z" fill="#1D1D1D"/>
<path opacity="0.3" d="M183 116.66L221.553 57.1933L293.582 116.557L183 116.66Z" fill="#1D1D1D"/>
<path opacity="0.2" d="M127 89.5003L32.5 160.5L-3.86191 69.8802L127 89.5003Z" fill="#353535"/>
<path opacity="0.05" d="M152.641 26.1078L121.791 -19.9615L204.308 5.99157L152.641 26.1078Z" fill="#A8A5A2"/>
<path opacity="0.05" d="M232.879 162.031L239.712 221.332L173.805 170.61L232.879 162.031Z" fill="#A8A5A2"/>
</g>
<defs>
<clipPath id="clip0_1_528">
<rect width="312" height="196" rx="15" fill="white"/>
</clipPath>
<clipPath id="clip1_1_528">
<rect width="100" height="34.6457" fill="white" transform="translate(192 21)"/>
</clipPath>
<clipPath id="clip2_1_528">
<rect width="60" height="19" fill="white" transform="translate(232 156)"/>
</clipPath>
</defs>
</svg>
