<svg width="33" height="24" viewBox="0 0 33 24" fill="none" xmlns="http://www.w3.org/2000/svg">
<g id="account_balance_wallet">
<g id="Vector">
<path d="M28.0943 7.28V5C28.0943 3.9 26.8829 3 25.4022 3H6.5573C5.06317 3 3.86517 3.9 3.86517 5V19C3.86517 20.1 5.06317 21 6.5573 21H25.4022C26.8829 21 28.0943 20.1 28.0943 19V16.72C28.8885 16.37 29.4404 15.74 29.4404 15V9C29.4404 8.26 28.8885 7.63 28.0943 7.28ZM26.7482 9V15H17.3258V9H26.7482ZM6.5573 19V5H25.4022V7H17.3258C15.8451 7 14.6337 7.9 14.6337 9V15C14.6337 16.1 15.8451 17 17.3258 17H25.4022V19H6.5573Z" fill="#201E1B"/>
<path d="M21.364 13.5C22.4791 13.5 23.3831 12.8284 23.3831 12C23.3831 11.1716 22.4791 10.5 21.364 10.5C20.2489 10.5 19.3449 11.1716 19.3449 12C19.3449 12.8284 20.2489 13.5 21.364 13.5Z" fill="#201E1B"/>
</g>
</g>
</svg>
