<svg width="24" height="24" viewBox="0 0 24 24" fill="none" xmlns="http://www.w3.org/2000/svg">
<path d="M3.97876 19V17H5.97876V10C5.97876 8.61667 6.39543 7.3875 7.22876 6.3125C8.06209 5.2375 9.14543 4.53333 10.4788 4.2V3.5C10.4788 3.08333 10.6246 2.72917 10.9163 2.4375C11.2079 2.14583 11.5621 2 11.9788 2C12.3954 2 12.7496 2.14583 13.0413 2.4375C13.3329 2.72917 13.4788 3.08333 13.4788 3.5V4.2C14.8121 4.53333 15.8954 5.2375 16.7288 6.3125C17.5621 7.3875 17.9788 8.61667 17.9788 10V17H19.9788V19H3.97876ZM11.9788 22C11.4288 22 10.9579 21.8042 10.5663 21.4125C10.1746 21.0208 9.97876 20.55 9.97876 20H13.9788C13.9788 20.55 13.7829 21.0208 13.3913 21.4125C12.9996 21.8042 12.5288 22 11.9788 22ZM7.97876 17H15.9788V10C15.9788 8.9 15.5871 7.95833 14.8038 7.175C14.0204 6.39167 13.0788 6 11.9788 6C10.8788 6 9.93709 6.39167 9.15376 7.175C8.37043 7.95833 7.97876 8.9 7.97876 10V17Z" fill="#353535"/>
</svg>
