<svg width="51" height="50" viewBox="0 0 51 50" fill="none" xmlns="http://www.w3.org/2000/svg">
<rect x="0.5" width="50" height="50" rx="25" fill="#F5CC82"/>
<path d="M37.0943 20.28V18C37.0943 16.9 35.8829 16 34.4022 16H15.5573C14.0632 16 12.8652 16.9 12.8652 18V32C12.8652 33.1 14.0632 34 15.5573 34H34.4022C35.8829 34 37.0943 33.1 37.0943 32V29.72C37.8885 29.37 38.4404 28.74 38.4404 28V22C38.4404 21.26 37.8885 20.63 37.0943 20.28ZM35.7482 22V28H26.3258V22H35.7482ZM15.5573 32V18H34.4022V20H26.3258C24.8451 20 23.6337 20.9 23.6337 22V28C23.6337 29.1 24.8451 30 26.3258 30H34.4022V32H15.5573Z" fill="#201E1B"/>
<path d="M30.364 26.5C31.4791 26.5 32.3831 25.8284 32.3831 25C32.3831 24.1716 31.4791 23.5 30.364 23.5C29.2489 23.5 28.3449 24.1716 28.3449 25C28.3449 25.8284 29.2489 26.5 30.364 26.5Z" fill="#201E1B"/>
</svg>
